<svg width="297" height="40" viewBox="0 0 297 40" fill="none" xmlns="http://www.w3.org/2000/svg">
<path fill-rule="evenodd" clip-rule="evenodd" d="M223.914 0.160149C182.158 0.614872 170.22 0.910678 147.052 2.06539C123.043 3.26203 105.861 4.46154 78.5983 6.84429C72.2783 7.39665 65.5111 7.92087 57.5778 8.47247C28.4354 10.4987 22.7644 11.0386 13.3434 12.6833C8.6756 13.4984 4.63876 14.0624 2.37623 14.2162C0.364659 14.3527 0 14.4386 0 14.7762C0 15.0745 3.21723 15.3358 4.97692 15.1804C5.60753 15.1248 7.31604 14.9887 8.77376 14.8782C10.2315 14.7676 13.4394 14.4706 15.9024 14.2183C21.7024 13.6238 24.4872 13.4363 34.4553 12.9693C51.2126 12.1844 63.8715 11.43 79.4208 10.2898C85.1512 9.86957 92.7597 9.31166 96.3286 9.04993C123.396 7.06466 156.46 5.29439 176.663 4.74892C201.181 4.08665 277.293 3.50116 276.008 3.98441C275.499 4.17607 266.789 5.6015 261.568 6.34782C256.772 7.03345 248.759 8.02235 238.902 9.14508C234.227 9.67773 227.812 10.4149 224.645 10.7832C212.748 12.1673 208.83 12.5966 202.071 13.2569C170.933 16.2987 150.364 18.9493 121.736 23.6091C104.719 26.3788 90.7719 29.5584 75.2069 34.2165C66.3574 36.8648 65.4952 37.3352 66.3662 39.0402C66.933 40.1495 71.3981 40.2933 80.404 39.492C96.8623 38.0279 112.328 36.8923 127.311 36.048C136.709 35.5184 137.954 35.4296 147.509 34.6075C151.078 34.3005 157.247 33.8517 161.218 33.6105L168.438 33.1719L158.842 32.999C144.3 32.7369 128.701 32.7528 123.564 33.035C106.556 33.9693 97.305 34.6884 82.1946 36.2506C78.593 36.623 75.5545 36.8956 75.4423 36.8566C74.3602 36.4786 98.5807 30.768 110.135 28.6769C136.218 23.956 163.078 20.4337 204.356 16.3207C208.126 15.9451 215.693 15.1233 221.172 14.4947C226.651 13.866 235.288 12.8761 240.365 12.2946C259.905 10.057 265.727 9.22358 284.508 5.97543C296.536 3.895 296.6 3.8772 296.927 2.50901C297.288 1.00469 296.324 0.322131 293.564 0.127031C290.941 -0.0584957 241.841 -0.0351424 223.914 0.160149ZM169.217 33.02C169.444 33.0658 169.773 33.0641 169.948 33.0162C170.123 32.9683 169.937 32.9308 169.535 32.9329C169.133 32.935 168.99 32.9743 169.217 33.02Z" fill="#FFD49E"/>
</svg>
